:SAMPLES-PER-SECOND 30
:FRAME-RANGE 1-2643
:FULLY-SPECIFIED
:DEGREES
1652
root  60.1966 35.8678 -116.861 60.9199 85.5628 54.7068
RightUpLeg  -33.3171 -6.06974 -6.53485
RightLeg  65.7396 5.05305 11.3606
RightFoot  -36.9222 1.28277 6.75819
RightToes  5.38607e-012 1.2921e-014 -6.02303e-014
Spine  22.0431 -6.43473 12.9954
Spine1  -1.38414 -3.52825 -1.32162
HEad  10.9918 -11.2414 14.5388
LeftShoulder1  1.04223 -5.83958 -3.62384
LeftArm  -13.4077 -44.393 -38.4381
LeftForeArm  24.4958 -11.0943 -8.03779
LeftHand  -0.270359 -1.9958 4.43602
RightShoulder  3.12094 8.50151 20.1616
RightArm  -36.5955 33.1685 43.6006
RightForeArm  55.2093 -4.20751 -5.86067
RightHand  -0.0699664 -5.05083 -20.7564
LeftUpLeg  -18.1079 -8.51835 19.0961
LeftLeg  34.5543 -10.406 -7.31157
LeftFoot  -21.3365 -1.70068 -20.7007
LeftToes  -4.79707e-012 -5.93756e-011 -7.55542e-012
1653
root  62.8446 36.6566 -114.945 50.3933 82.7772 42.6126
RightUpLeg  -35.2023 -7.44014 -8.89942
RightLeg  56.4206 4.23763 6.30195
RightFoot  -34.5118 -0.294221 -0.287325
RightToes  5.38607e-012 1.2921e-014 -6.02303e-014
Spine  20.5633 -5.22251 11.2886
Spine1  0.0652857 -3.36034 -0.996815
HEad  10.037 -10.6503 16.3321
LeftShoulder1  1.17291 -6.3338 -4.49671
LeftArm  -4.82853 -44.3195 -49.2367
LeftForeArm  26.1633 -13.5255 -7.68787
LeftHand  -0.167923 -0.0762896 3.60662
RightShoulder  2.8186 7.19173 20.6012
RightArm  -35.8595 29.441 42.9897
RightForeArm  55.9277 -4.34915 -4.93342
RightHand  0.258051 -6.88929 -20.7503
LeftUpLeg  -13.0598 -8.6099 19.8346
LeftLeg  30.2985 -11.0477 -6.59748
LeftFoot  -12.022 -0.0975639 -27.9085
LeftToes  -4.79707e-012 -5.93756e-011 -7.55542e-012
1654
root  65.4675 37.1917 -112.847 49.8087 80.3367 41.1121
RightUpLeg  -34.9395 -9.88891 -10.5987
RightLeg  47.8732 3.64836 3.88743
RightFoot  -33.4225 -1.96254 -8.87173
RightToes  5.38607e-012 1.2921e-014 -6.02303e-014
Spine  20.6627 -4.53022 7.97912
Spine1  -0.178061 -3.99566 0.990837
HEad  9.62186 -10.0267 17.0715
LeftShoulder1  1.54452 -6.84698 -7.92552
LeftArm  7.78243 -41.566 -54.7625
LeftForeArm  24.8402 -15.8731 -7.49662
LeftHand  -0.248879 0.28844 5.6834
RightShoulder  2.76361 6.90813 20.8209
RightArm  -33.5235 26.7871 43.9524
RightForeArm  58.7398 -4.52897 -3.3975
RightHand  0.213712 -6.6224 -21.0257
LeftUpLeg  -12.0484 -12.3814 20.1162
LeftLeg  31.9924 -9.16639 -5.81101
LeftFoot  1.55463 3.29533 -28.6867
LeftToes  -4.79707e-012 -5.93756e-011 -7.55542e-012
1655
root  68.1417 37.4647 -110.883 42.1381 77.9377 33.5177
RightUpLeg  -32.6717 -12.054 -11.4276
RightLeg  42.1145 6.31419 6.54282
RightFoot  -31.6993 -2.79369 -14.2781
RightToes  5.38607e-012 1.2921e-014 -6.02303e-014
Spine  19.2898 -3.9368 8.27323
Spine1  1.34092 -3.33352 1.1125
HEad  8.4125 -10.7778 16.9161
LeftShoulder1  2.2545 -8.82157 -11.69
LeftArm  5.85481 -38.2016 -55.4492
LeftForeArm  32.7135 -12.8887 -9.06001
LeftHand  -0.264674 0.599908 6.40601
RightShoulder  2.58135 5.81522 22.1393
RightArm  -31.1599 25.1679 45.1084
RightForeArm  61.3652 -4.71775 -1.80564
RightHand  0.271771 -7.0209 -20.1273
LeftUpLeg  -13.1223 -17.3783 19.6682
LeftLeg  39.8181 -8.42437 -7.11917
LeftFoot  9.86107 3.64682 -19.6416
LeftToes  -4.79707e-012 -5.93756e-011 -7.55542e-012
1656
root  70.703 37.2591 -108.822 36.0378 75.3063 28.153
RightUpLeg  -29.7857 -11.6296 -12.4131
RightLeg  41.173 10.7952 10.8064
RightFoot  -28.7629 -2.46457 -14.7231
RightToes  5.38607e-012 1.2921e-014 -6.02303e-014
Spine  18.2462 -3.16381 7.3766
Spine1  2.46272 -2.73734 3.18237
HEad  7.07836 -12.0647 14.9731
LeftShoulder1  2.69158 -8.31294 -16.7211
LeftArm  3.48797 -35.5317 -54.4531
LeftForeArm  33.925 -9.46747 -10.6197
LeftHand  -0.208145 0.868469 5.28997
RightShoulder  2.35834 5.56567 20.2946
RightArm  -28.0617 22.7876 48.5088
RightForeArm  63.4413 -4.98042 0.14287
RightHand  -0.0371676 -5.2342 -20.478
LeftUpLeg  -15.5834 -20.059 19.5129
LeftLeg  49.6639 -6.94527 -8.28671
LeftFoot  5.07735 2.75253 -19.1398
LeftToes  -4.79707e-012 -5.93756e-011 -7.55542e-012
1657
root  73.1749 36.9754 -106.482 34.6598 72.4521 27.9174
RightUpLeg  -28.4697 -16.087 -12.6425
RightLeg  47.8078 19.3198 21.0548
RightFoot  -23.3949 -1.52535 -12.8883
RightToes  5.38607e-012 1.2921e-014 -6.02303e-014
Spine  18.1028 -3.31636 5.31255
Spine1  1.8557 -2.60453 2.15599
HEad  6.72573 -13.16 14.8405
LeftShoulder1  2.38016 -7.16176 -16.2566
LeftArm  4.11764 -30.0899 -53.949
LeftForeArm  30.5547 -8.92427 -11.0912
LeftHand  -0.149907 2.45867 5.5546
RightShoulder  2.63651 5.923 22.4255
RightArm  -25.5609 21.1627 50.331
RightForeArm  63.6085 -5.25918 1.81844
RightHand  -0.138277 -4.65458 -20.354
LeftUpLeg  -18.8783 -18.7794 19.1035
LeftLeg  55.2648 -5.14214 -7.46998
LeftFoot  1.52715 1.99005 -17.611
LeftToes  -4.79707e-012 -5.93756e-011 -7.55542e-012
1658
root  75.4689 36.5048 -104.076 30.347 68.4471 25.2127
RightUpLeg  -26.2279 -11.4832 -14.3154
RightLeg  53.3203 20.0507 26.0241
RightFoot  -26.006 -2.13652 -15.1379
RightToes  5.38607e-012 1.2921e-014 -6.02303e-014
Spine  17.6275 -2.31189 3.682
Spine1  2.35373 -1.1558 0.430105
HEad  5.12923 -14.8502 13.9802
LeftShoulder1  2.27135 -6.69206 -16.2348
LeftArm  6.98379 -24.2638 -52.7509
LeftForeArm  28.5246 -10.8108 -10.7019
LeftHand  -0.146977 2.85087 6.2137
RightShoulder  2.71106 6.02122 22.9572
RightArm  -24.6627 21.496 53.7613
RightForeArm  62.831 -5.33287 2.09173
RightHand  -0.132485 -4.71913 -21.4299
LeftUpLeg  -23.2982 -16.5936 18.1557
LeftLeg  60.356 -4.42151 -7.82793
LeftFoot  -7.19058 0.813127 -21.0462
LeftToes  -4.79707e-012 -5.93756e-011 -7.55542e-012
1659
root  77.914 36.1389 -101.51 26.1897 64.1689 23.0125
RightUpLeg  -22.322 -6.28072 -15.5293
RightLeg  56.85 21.061 30.4216
RightFoot  -28.5249 -3.09676 -19.0262
RightToes  5.38607e-012 1.2921e-014 -6.02303e-014
Spine  15.8657 -1.05462 1.37401
Spine1  3.42184 0.27287 -1.81571
HEad  6.49167 -16.1486 12.6307
LeftShoulder1  1.92592 -4.96039 -16.8656
LeftArm  15.4841 -18.5072 -51.0565
LeftForeArm  20.3535 -13.5284 -10.1743
LeftHand  -0.160707 3.04993 7.41903
RightShoulder  2.6785 5.75772 23.4693
RightArm  -23.4464 22.5439 57.4744
RightForeArm  66.4459 -5.22953 2.25561
RightHand  -0.397299 -3.3663 -22.3453
LeftUpLeg  -27.2409 -14.7011 16.0335
LeftLeg  62.4108 -4.35554 -8.41601
LeftFoot  -16.4879 -0.875883 -21.4456
LeftToes  -4.79707e-012 -5.93756e-011 -7.55542e-012
1660
root  80.2456 36.2307 -98.8154 25.4299 60.9146 23.3695
RightUpLeg  -17.4722 -0.178378 -16.0013
RightLeg  55.981 22.2274 30.8896
RightFoot  -29.7635 -3.73348 -21.5057
RightToes  5.38607e-012 1.2921e-014 -6.02303e-014
Spine  14.4228 0.244122 -1.38334
Spine1  3.3844 1.22893 -2.55742
HEad  8.39788 -18.5439 12.8462
LeftShoulder1  1.50192 -3.117 -16.9533
LeftArm  18.5647 -10.8313 -51.1929
LeftForeArm  23.0686 -16.8497 -7.79268
LeftHand  -0.218982 -1.96428 3.63903
RightShoulder  2.68169 5.71523 23.6536
RightArm  -19.3779 22.0303 60.3061
RightForeArm  64.9145 -4.11428 4.739
RightHand  -0.35198 -3.67587 -23.3159
LeftUpLeg  -32.7742 -15.0962 12.8369
LeftLeg  59.8033 -2.91144 -4.84781
LeftFoot  -18.9559 -1.46106 -23.3539
LeftToes  -4.79707e-012 -5.93756e-011 -7.55542e-012
1661
root  82.4715 36.9413 -95.9604 24.6742 57.1145 22.7937
RightUpLeg  -12.5971 6.59167 -15.6336
RightLeg  52.266 25.5252 30.681
RightFoot  -27.3036 -3.21306 -21.3308
RightToes  5.38607e-012 1.2921e-014 -6.02303e-014
Spine  12.205 1.57311 -2.63877
Spine1  4.9615 3.18837 -4.50967
HEad  8.13239 -20.7069 15.0732
LeftShoulder1  1.19855 -1.68244 -17.646
LeftArm  25.6491 -3.661 -49.6996
LeftForeArm  16.6328 -23.1455 -4.19694
LeftHand  -0.265072 -3.03969 3.88582
RightShoulder  2.74727 5.82804 24.0263
RightArm  -16.3496 21.7891 62.3847
RightForeArm  64.5002 0.0352203 6.8464
RightHand  -0.623896 -2.29177 -23.0933
LeftUpLeg  -36.6621 -15.4355 10.0115
LeftLeg  50.727 -0.263374 0.115557
LeftFoot  -15.5992 -0.892776 -26.0884
LeftToes  -4.79707e-012 -5.93756e-011 -7.55542e-012
1662
root  84.8576 37.513 -93.2163 24.4963 54.4581 22.4881
RightUpLeg  -8.26681 11.1805 -15.5324
RightLeg  49.9479 29.0196 31.5795
RightFoot  -23.7847 -2.29358 -19.362
RightToes  5.38607e-012 1.2921e-014 -6.02303e-014
Spine  9.82948 2.0561 -2.33338
Spine1  5.77772 4.23521 -4.80267
HEad  7.64345 -22.8579 17.6637
LeftShoulder1  1.01286 -0.703753 -18.9747
LeftArm  20.1367 4.02769 -47.5389
LeftForeArm  18.2175 -30.0118 -5.52632
LeftHand  -0.238406 0.884832 6.09601
RightShoulder  2.71853 6.22571 22.3794
RightArm  -14.2537 20.494 66.3974
RightForeArm  62.3244 3.59434 8.19089
RightHand  -0.195228 -4.48894 -24.253
LeftUpLeg  -38.4517 -18.5703 9.21601
LeftLeg  36.9448 3.59795 3.27192
LeftFoot  -12.0294 -0.0896291 -26.3791
LeftToes  -4.79707e-012 -5.93756e-011 -7.55542e-012
1663
root  87.5691 37.523 -90.3225 22.6489 51.3766 19.6207
RightUpLeg  -5.5986 15.7737 -14.4695
RightLeg  51.3663 31.7091 35.0555
RightFoot  -20.3184 -1.51095 -17.3542
RightToes  5.38607e-012 1.2921e-014 -6.02303e-014
Spine  5.58077 3.22503 1.3293
Spine1  5.13294 5.44629 -4.96416
HEad  8.05667 -25.8642 20.0039
LeftShoulder1  0.748197 0.395927 -19.4557
LeftArm  18.0828 9.42043 -44.2576
LeftForeArm  24.3187 -36.2647 -6.76257
LeftHand  -0.295183 -0.108171 6.29594
RightShoulder  2.64355 6.20013 21.6189
RightArm  -13.3825 18.8435 69.8258
RightForeArm  63.3398 5.99645 8.8354
RightHand  -0.358574 -3.668 -23.6569
LeftUpLeg  -37.2009 -14.7875 8.77909
LeftLeg  20.222 0.45693 0.502636
LeftFoot  -9.23585 0.487734 -23.2641
LeftToes  -4.79707e-012 -5.93756e-011 -7.55542e-012
1664
root  90.2803 36.8617 -87.4839 20.2792 49.4468 16.6286
RightUpLeg  -4.48636 19.7693 -12.9358
RightLeg  58.1227 30.9591 41.64
RightFoot  -17.9157 -0.968662 -14.6723
RightToes  5.38607e-012 1.2921e-014 -6.02303e-014
Spine  3.58263 3.719 6.03596
Spine1  3.47558 6.0576 -7.57009
HEad  6.87365 -29.5507 21.8395
LeftShoulder1  0.560355 0.995658 -17.8839
LeftArm  18.5297 12.3455 -43.1074
LeftForeArm  27.7406 -40.904 -7.89613
LeftHand  -0.305661 -1.51735 5.29912
RightShoulder  2.65923 5.89522 22.7798
RightArm  -8.14022 17.8745 69.4972
RightForeArm  62.5599 7.44427 10.2436
RightHand  -0.352776 -3.63817 -22.8622
LeftUpLeg  -37.8276 -10.5344 6.85294
LeftLeg  14.3356 -3.74893 -0.7916
LeftFoot  -10.4563 0.220217 -20.2678
LeftToes  -4.79707e-012 -5.93756e-011 -7.55542e-012
